<mxfile host="app.diagrams.net" agent="Mozilla/5.0 (Windows NT 10.0; Win64; x64) AppleWebKit/537.36 (KHTML, like Gecko) Chrome/131.0.0.0 Safari/537.36" version="25.0.3">
  <diagram name="Strona-1" id="lZpESUy10PnK8Dj05Oq8">
    <mxGraphModel dx="2087" dy="1874" grid="1" gridSize="10" guides="1" tooltips="1" connect="1" arrows="1" fold="1" page="1" pageScale="1" pageWidth="1169" pageHeight="827" math="0" shadow="0">
      <root>
        <mxCell id="0" />
        <mxCell id="1" parent="0" />
        <mxCell id="dlSuwosCIeABSDJj-nkc-16" value="" style="endArrow=none;dashed=1;html=1;dashPattern=1 3;strokeWidth=2;rounded=0;" parent="1" edge="1">
          <mxGeometry width="50" height="50" relative="1" as="geometry">
            <mxPoint x="530" y="-170" as="sourcePoint" />
            <mxPoint x="530" y="-490" as="targetPoint" />
          </mxGeometry>
        </mxCell>
        <mxCell id="dlSuwosCIeABSDJj-nkc-17" value="" style="endArrow=none;dashed=1;html=1;dashPattern=1 3;strokeWidth=2;rounded=0;" parent="1" edge="1">
          <mxGeometry width="50" height="50" relative="1" as="geometry">
            <mxPoint x="830" y="-150" as="sourcePoint" />
            <mxPoint x="830" y="-470" as="targetPoint" />
          </mxGeometry>
        </mxCell>
        <mxCell id="dlSuwosCIeABSDJj-nkc-18" value="&lt;font style=&quot;font-size: 18px;&quot;&gt;Wartwa prezentacji&lt;/font&gt;" style="text;html=1;align=center;verticalAlign=middle;whiteSpace=wrap;rounded=0;" parent="1" vertex="1">
          <mxGeometry x="319" y="-540" width="140" height="60" as="geometry" />
        </mxCell>
        <mxCell id="dlSuwosCIeABSDJj-nkc-19" value="&lt;font style=&quot;font-size: 18px;&quot;&gt;Warstwa logiki biznesowej&lt;/font&gt;" style="text;html=1;align=center;verticalAlign=middle;whiteSpace=wrap;rounded=0;" parent="1" vertex="1">
          <mxGeometry x="600" y="-540" width="140" height="60" as="geometry" />
        </mxCell>
        <mxCell id="dlSuwosCIeABSDJj-nkc-20" value="&lt;font style=&quot;font-size: 18px;&quot;&gt;Warstwa danych&lt;/font&gt;" style="text;html=1;align=center;verticalAlign=middle;whiteSpace=wrap;rounded=0;" parent="1" vertex="1">
          <mxGeometry x="870" y="-540" width="140" height="60" as="geometry" />
        </mxCell>
        <mxCell id="dlSuwosCIeABSDJj-nkc-29" value="" style="image;points=[];aspect=fixed;html=1;align=center;shadow=0;dashed=0;image=img/lib/allied_telesis/computer_and_terminals/Server_Desktop.svg;" parent="1" vertex="1">
          <mxGeometry x="636.86" y="-393" width="66.27" height="84" as="geometry" />
        </mxCell>
        <mxCell id="dlSuwosCIeABSDJj-nkc-30" value="" style="shape=datastore;whiteSpace=wrap;html=1;" parent="1" vertex="1">
          <mxGeometry x="910" y="-390" width="80" height="63.67" as="geometry" />
        </mxCell>
        <mxCell id="dlSuwosCIeABSDJj-nkc-31" value="" style="sketch=0;outlineConnect=0;fontColor=#232F3E;gradientColor=none;fillColor=#232F3D;strokeColor=none;dashed=0;verticalLabelPosition=bottom;verticalAlign=top;align=center;html=1;fontSize=12;fontStyle=0;aspect=fixed;pointerEvents=1;shape=mxgraph.aws4.globe;" parent="1" vertex="1">
          <mxGeometry x="350" y="-390" width="78" height="78" as="geometry" />
        </mxCell>
        <mxCell id="dlSuwosCIeABSDJj-nkc-35" value="&lt;font style=&quot;font-size: 14px;&quot;&gt;Aplikacja internetowa&lt;/font&gt;" style="text;html=1;align=center;verticalAlign=middle;whiteSpace=wrap;rounded=0;" parent="1" vertex="1">
          <mxGeometry x="319" y="-436.76" width="140" height="46.51" as="geometry" />
        </mxCell>
        <mxCell id="dlSuwosCIeABSDJj-nkc-36" value="&lt;font style=&quot;font-size: 14px;&quot;&gt;API&lt;/font&gt;" style="text;html=1;align=center;verticalAlign=middle;whiteSpace=wrap;rounded=0;" parent="1" vertex="1">
          <mxGeometry x="620" y="-428" width="100" height="30" as="geometry" />
        </mxCell>
        <mxCell id="dlSuwosCIeABSDJj-nkc-38" value="&lt;font style=&quot;font-size: 12px;&quot;&gt;Relacyjna baza danych&lt;/font&gt;" style="text;html=1;align=center;verticalAlign=middle;whiteSpace=wrap;rounded=0;" parent="1" vertex="1">
          <mxGeometry x="900" y="-436.76" width="100" height="30" as="geometry" />
        </mxCell>
        <mxCell id="FwIqh5meIRlvXvxpSthh-2" value="" style="endArrow=classic;startArrow=classic;html=1;rounded=0;" edge="1" parent="1">
          <mxGeometry width="50" height="50" relative="1" as="geometry">
            <mxPoint x="450" y="-360" as="sourcePoint" />
            <mxPoint x="610" y="-360" as="targetPoint" />
          </mxGeometry>
        </mxCell>
        <mxCell id="FwIqh5meIRlvXvxpSthh-4" value="Metody HTTP" style="edgeLabel;html=1;align=center;verticalAlign=middle;resizable=0;points=[];" vertex="1" connectable="0" parent="FwIqh5meIRlvXvxpSthh-2">
          <mxGeometry x="-0.4923" y="3" relative="1" as="geometry">
            <mxPoint x="40" y="-7" as="offset" />
          </mxGeometry>
        </mxCell>
        <mxCell id="FwIqh5meIRlvXvxpSthh-3" value="" style="endArrow=classic;startArrow=classic;html=1;rounded=0;" edge="1" parent="1">
          <mxGeometry width="50" height="50" relative="1" as="geometry">
            <mxPoint x="730" y="-360" as="sourcePoint" />
            <mxPoint x="890" y="-360" as="targetPoint" />
          </mxGeometry>
        </mxCell>
        <mxCell id="FwIqh5meIRlvXvxpSthh-5" value="Zapytania SQL" style="edgeLabel;html=1;align=center;verticalAlign=middle;resizable=0;points=[];" vertex="1" connectable="0" parent="FwIqh5meIRlvXvxpSthh-3">
          <mxGeometry x="0.1327" relative="1" as="geometry">
            <mxPoint x="1" y="-10" as="offset" />
          </mxGeometry>
        </mxCell>
      </root>
    </mxGraphModel>
  </diagram>
</mxfile>
